<mxfile host="Electron" modified="2024-05-27T03:19:00.529Z" agent="Mozilla/5.0 (Windows NT 10.0; Win64; x64) AppleWebKit/537.36 (KHTML, like Gecko) draw.io/24.4.8 Chrome/124.0.6367.207 Electron/30.0.6 Safari/537.36" etag="kfmO6X20VMNNO-gO2cv5" version="24.4.8" type="device">
  <diagram name="Seite-1" id="JglpVuhKJZ4LjeI_iKhf">
    <mxGraphModel dx="1101" dy="824" grid="1" gridSize="10" guides="1" tooltips="1" connect="1" arrows="1" fold="1" page="1" pageScale="1" pageWidth="827" pageHeight="1169" math="0" shadow="0">
      <root>
        <mxCell id="0" />
        <mxCell id="1" parent="0" />
        <mxCell id="3gL_nudtShwooV-kC84F-1" value="" style="endArrow=none;html=1;rounded=0;" parent="1" edge="1">
          <mxGeometry width="50" height="50" relative="1" as="geometry">
            <mxPoint x="319" y="211" as="sourcePoint" />
            <mxPoint x="319" y="191" as="targetPoint" />
          </mxGeometry>
        </mxCell>
        <mxCell id="n_2wwA2RKwXqwCLpqcgT-5" value="" style="endArrow=baseDash;html=1;rounded=0;startArrow=baseDash;startFill=0;endFill=0;fillColor=#dae8fc;strokeColor=#6c8ebf;strokeWidth=4;" parent="1" edge="1">
          <mxGeometry width="50" height="50" relative="1" as="geometry">
            <mxPoint x="160" y="195" as="sourcePoint" />
            <mxPoint x="320" y="195" as="targetPoint" />
          </mxGeometry>
        </mxCell>
        <mxCell id="n_2wwA2RKwXqwCLpqcgT-6" value="" style="endArrow=baseDash;html=1;rounded=0;startArrow=baseDash;startFill=0;endFill=0;fillColor=#d5e8d4;strokeColor=#82b366;strokeWidth=4;" parent="1" edge="1">
          <mxGeometry width="50" height="50" relative="1" as="geometry">
            <mxPoint x="320" y="195" as="sourcePoint" />
            <mxPoint x="480" y="195" as="targetPoint" />
          </mxGeometry>
        </mxCell>
        <mxCell id="-zu-WaUTnJdsrZC2qm7--1" value="" style="endArrow=classic;html=1;rounded=0;" parent="1" edge="1">
          <mxGeometry width="50" height="50" relative="1" as="geometry">
            <mxPoint x="160" y="200" as="sourcePoint" />
            <mxPoint x="480" y="200" as="targetPoint" />
          </mxGeometry>
        </mxCell>
        <mxCell id="-zu-WaUTnJdsrZC2qm7--13" value="&lt;span style=&quot;font-size: 14px;&quot;&gt;Interval in&amp;nbsp;&lt;/span&gt;&lt;span class=&quot;mwe-math-element&quot;&gt;&lt;span style=&quot;display: none;&quot; class=&quot;mwe-math-mathml-inline mwe-math-mathml-a11y&quot;&gt;&lt;math xmlns=&quot;http://www.w3.org/1998/Math/MathML&quot;&gt;&lt;/math&gt;&lt;br&gt;  &lt;br&gt;    &lt;br&gt;    &lt;br&gt;  &lt;br&gt;&lt;/span&gt;&lt;img alt=&quot;{\displaystyle {\overline {\mathbb {R} }}}&quot; style=&quot;vertical-align: -0.338ex; width:1.793ex; height:3.009ex;&quot; aria-hidden=&quot;true&quot; class=&quot;mwe-math-fallback-image-inline mw-invert skin-invert&quot; src=&quot;https://wikimedia.org/api/rest_v1/media/math/render/svg/c62ecdf73d36e9d05a018732fd5f51db73d0c55b&quot;&gt;&lt;/span&gt;" style="text;html=1;align=center;verticalAlign=middle;whiteSpace=wrap;rounded=0;" parent="1" vertex="1">
          <mxGeometry x="260" y="109" width="110" height="40" as="geometry" />
        </mxCell>
        <mxCell id="n_2wwA2RKwXqwCLpqcgT-3" value="&lt;font style=&quot;font-size: 16px;&quot;&gt;&lt;font style=&quot;font-size: 16px;&quot;&gt;0&amp;nbsp;&lt;span style=&quot;background-color: initial;&quot;&gt;•&amp;nbsp;&lt;/span&gt;∞ =&amp;nbsp;&lt;/font&gt;&lt;font style=&quot;font-size: 16px;&quot; color=&quot;#82b366&quot;&gt;[0,&amp;nbsp;∞]&lt;/font&gt;&lt;/font&gt;" style="text;html=1;align=center;verticalAlign=middle;whiteSpace=wrap;rounded=0;" parent="1" vertex="1">
          <mxGeometry x="320" y="148" width="120" height="40" as="geometry" />
        </mxCell>
        <mxCell id="n_2wwA2RKwXqwCLpqcgT-4" value="&lt;font style=&quot;font-size: 16px;&quot;&gt;&lt;font style=&quot;font-size: 16px;&quot;&gt;0&amp;nbsp;&lt;span style=&quot;background-color: initial;&quot;&gt;• -&lt;/span&gt;∞ =&amp;nbsp;&lt;/font&gt;&lt;font style=&quot;font-size: 16px;&quot; color=&quot;#7ea6e0&quot;&gt;[-∞, 0]&lt;/font&gt;&lt;/font&gt;" style="text;html=1;align=center;verticalAlign=middle;whiteSpace=wrap;rounded=0;" parent="1" vertex="1">
          <mxGeometry x="200" y="149" width="120" height="40" as="geometry" />
        </mxCell>
        <mxCell id="n_2wwA2RKwXqwCLpqcgT-7" value="&lt;font style=&quot;font-size: 16px;&quot;&gt;∞&amp;nbsp;&lt;/font&gt;&lt;img style=&quot;text-align: left; vertical-align: -0.338ex; width: 1.793ex; height: 3.009ex;&quot; alt=&quot;{\displaystyle {\overline {\mathbb {R} }}}&quot; aria-hidden=&quot;true&quot; class=&quot;mwe-math-fallback-image-inline mw-invert skin-invert&quot; src=&quot;https://wikimedia.org/api/rest_v1/media/math/render/svg/c62ecdf73d36e9d05a018732fd5f51db73d0c55b&quot;&gt;" style="text;html=1;align=center;verticalAlign=middle;whiteSpace=wrap;rounded=0;" parent="1" vertex="1">
          <mxGeometry x="464" y="179" width="79" height="40" as="geometry" />
        </mxCell>
        <mxCell id="3gL_nudtShwooV-kC84F-2" value="" style="endArrow=none;html=1;rounded=0;" parent="1" edge="1">
          <mxGeometry width="50" height="50" relative="1" as="geometry">
            <mxPoint x="400" y="209" as="sourcePoint" />
            <mxPoint x="400" y="189" as="targetPoint" />
          </mxGeometry>
        </mxCell>
        <mxCell id="3gL_nudtShwooV-kC84F-3" value="&lt;font style=&quot;font-size: 16px;&quot;&gt;-∞&lt;/font&gt;" style="text;html=1;align=center;verticalAlign=middle;whiteSpace=wrap;rounded=0;" parent="1" vertex="1">
          <mxGeometry x="100" y="179" width="79" height="40" as="geometry" />
        </mxCell>
        <mxCell id="3gL_nudtShwooV-kC84F-8" value="" style="endArrow=none;html=1;rounded=0;" parent="1" edge="1">
          <mxGeometry width="50" height="50" relative="1" as="geometry">
            <mxPoint x="240" y="209" as="sourcePoint" />
            <mxPoint x="240" y="189" as="targetPoint" />
          </mxGeometry>
        </mxCell>
        <mxCell id="3gL_nudtShwooV-kC84F-9" value="&lt;font style=&quot;font-size: 12px;&quot;&gt;&lt;font style=&quot;font-size: 12px;&quot;&gt;0&amp;nbsp;=&amp;nbsp;&lt;/font&gt;[0,&amp;nbsp;0]&lt;/font&gt;" style="text;html=1;align=center;verticalAlign=middle;whiteSpace=wrap;rounded=0;" parent="1" vertex="1">
          <mxGeometry x="285" y="205" width="80" height="40" as="geometry" />
        </mxCell>
        <mxCell id="3gL_nudtShwooV-kC84F-10" value="&lt;font style=&quot;font-size: 12px;&quot;&gt;&lt;font style=&quot;font-size: 12px;&quot;&gt;1 =&amp;nbsp;&lt;/font&gt;[0, 1]&lt;/font&gt;" style="text;html=1;align=center;verticalAlign=middle;whiteSpace=wrap;rounded=0;" parent="1" vertex="1">
          <mxGeometry x="360" y="205" width="80" height="40" as="geometry" />
        </mxCell>
        <mxCell id="3gL_nudtShwooV-kC84F-11" value="&lt;font style=&quot;font-size: 12px;&quot;&gt;&lt;font style=&quot;font-size: 12px;&quot;&gt;-1 =&amp;nbsp;&lt;/font&gt;[-1, 0]&lt;/font&gt;" style="text;html=1;align=center;verticalAlign=middle;whiteSpace=wrap;rounded=0;" parent="1" vertex="1">
          <mxGeometry x="200" y="205" width="80" height="40" as="geometry" />
        </mxCell>
      </root>
    </mxGraphModel>
  </diagram>
</mxfile>
